<!DOCTYPE svg PUBLIC "-//W3C//DTD SVG 20010904//EN" "http://www.w3.org/TR/2001/REC-SVG-20010904/DTD/svg10.dtd">
<svg version="1.0" xmlns="http://www.w3.org/2000/svg" width="22px" height="29px" viewBox="0 0 220 290" preserveAspectRatio="xMidYMid meet">
<g id="layer101" fill="#120f10" stroke="none">
 <path d="M55 263 c-3 -15 -10 -30 -13 -33 -12 -9 -42 -80 -42 -100 0 -22 39 -29 42 -7 1 6 4 -17 7 -53 6 -61 7 -65 31 -65 20 0 26 6 28 27 2 21 10 30 30 35 15 3 29 9 32 12 3 3 14 11 25 17 25 14 31 69 15 142 l-11 52 -69 0 c-66 0 -68 -1 -75 -27z"/>
 </g>
<g id="layer102" fill="#304344" stroke="none">
 <path d="M60 240 c-7 -22 -16 -40 -19 -40 -9 0 -34 -60 -28 -67 12 -11 36 6 40 29 2 13 5 -17 6 -65 1 -79 3 -88 19 -85 14 3 17 14 15 63 -1 40 1 50 5 31 10 -43 32 -45 33 -4 1 23 3 26 6 11 6 -33 33 -29 34 5 1 20 2 22 6 7 16 -65 41 1 29 76 -11 66 -24 79 -82 79 -50 0 -51 0 -64 -40z"/>
 </g>
<g id="layer103" fill="#645f61" stroke="none">
 <path d="M55 226 c-13 -30 -29 -57 -34 -61 -6 -3 -11 -13 -11 -21 0 -25 33 -12 41 16 4 15 7 -11 8 -62 1 -71 4 -88 16 -88 12 0 15 14 16 63 1 34 4 50 6 35 6 -37 33 -37 34 0 2 23 2 24 6 5 6 -33 33 -29 34 5 1 26 1 26 8 3 6 -22 8 -22 20 -7 16 19 9 128 -9 134 -5 2 -10 10 -10 18 0 10 -14 14 -51 14 l-50 0 -24 -54z"/>
 </g>
<g id="layer104" fill="#7d8282" stroke="none">
 <path d="M80 265 c0 -8 -4 -15 -8 -15 -5 0 -15 -18 -22 -41 -8 -23 -20 -43 -27 -46 -7 -3 -13 -12 -13 -20 0 -23 35 -10 38 15 7 50 17 17 17 -60 0 -56 4 -82 13 -85 9 -3 12 13 13 59 1 35 4 51 6 36 6 -37 33 -37 34 0 2 23 2 24 6 5 6 -33 33 -29 34 5 2 24 2 24 6 4 4 -19 7 -21 19 -11 15 12 20 90 7 103 -5 4 -9 11 -9 14 -10 47 -17 52 -65 52 -37 0 -49 -4 -49 -15z"/>
 </g>
<g id="layer105" fill="#b7b6b6" stroke="none">
 <path d="M60 227 c-13 -29 -30 -59 -38 -69 -10 -12 -10 -18 -2 -23 13 -8 30 11 30 33 0 6 5 12 11 12 6 0 9 -29 8 -82 -1 -55 2 -83 9 -86 8 -2 12 16 12 57 0 38 4 61 11 61 7 0 9 -10 5 -25 -5 -18 -2 -25 9 -25 10 0 15 10 16 28 0 26 1 26 9 5 13 -33 30 -28 31 10 1 24 3 26 6 9 3 -13 10 -21 16 -19 14 4 22 97 9 97 -6 0 -13 16 -16 35 -7 34 -8 35 -54 35 -47 -1 -47 -1 -72 -53z"/>
 </g>
<g id="layer106" fill="#fbfbfb" stroke="none">
 <path d="M74 245 c-3 -14 -11 -25 -17 -25 -6 0 -7 -3 -4 -7 4 -3 -5 -22 -19 -41 -23 -29 -24 -33 -8 -30 11 2 20 13 22 26 2 12 8 22 13 22 5 0 9 -38 9 -85 0 -50 4 -85 10 -85 6 0 10 27 10 61 0 37 4 58 10 54 6 -3 10 -17 10 -31 0 -13 5 -24 10 -24 6 0 8 10 4 24 -3 13 -1 27 6 31 7 4 14 -2 18 -16 l6 -24 5 23 c6 23 27 27 25 5 -1 -7 2 -10 7 -7 12 7 11 71 -2 117 -10 36 -11 37 -59 37 -45 0 -50 -3 -56 -25z"/>
 </g>

</svg>