<!DOCTYPE svg PUBLIC "-//W3C//DTD SVG 20010904//EN" "http://www.w3.org/TR/2001/REC-SVG-20010904/DTD/svg10.dtd">
<svg version="1.0" xmlns="http://www.w3.org/2000/svg" width="346px" height="434px" viewBox="0 0 3460 4340" preserveAspectRatio="xMidYMid meet">
<g id="layer101" fill="#414040" stroke="none">
 <path d="M1538 4330 c-25 -4 -59 -14 -75 -22 -26 -12 -28 -17 -31 -85 l-3 -71 36 -13 35 -13 0 -788 0 -788 -32 1 c-31 2 -31 2 -5 6 22 4 27 9 27 33 0 27 -2 28 -32 24 -18 -2 -82 -9 -143 -15 -113 -10 -206 -21 -355 -39 -47 -5 -123 -14 -170 -20 -47 -5 -123 -14 -170 -20 -47 -5 -152 -17 -235 -25 -175 -18 -219 -26 -260 -47 -81 -43 -95 -93 -95 -363 0 -115 -5 -379 -10 -585 -5 -206 -10 -584 -10 -840 -2 -403 0 -470 14 -500 39 -87 58 -94 261 -97 109 -2 163 1 150 6 -11 5 -50 10 -87 10 -37 1 -70 6 -73 11 -3 6 -48 10 -99 10 -86 0 -94 2 -116 25 l-23 25 7 472 c3 260 9 642 11 848 3 206 8 493 11 637 7 315 1 299 134 307 l85 5 -69 -9 c-97 -12 -114 -18 -125 -39 -16 -28 -46 -2218 -32 -2235 7 -9 47 -16 109 -21 53 -4 105 -11 114 -16 9 -5 72 -9 139 -10 79 0 118 -4 109 -10 -8 -5 -23 -9 -33 -9 -25 0 -77 -38 -77 -56 0 -11 17 -14 79 -14 82 0 91 5 91 50 0 9 6 22 13 28 7 6 96 11 213 14 160 2 198 0 185 -9 -9 -7 -25 -13 -35 -13 -25 0 -86 -41 -86 -58 0 -10 20 -12 83 -10 81 3 82 3 85 30 2 15 15 37 29 48 24 19 39 20 207 19 99 -1 168 -5 151 -8 -39 -8 -95 -43 -95 -58 0 -10 24 -13 85 -13 l84 0 7 35 c3 19 11 39 18 43 6 4 102 9 214 12 163 4 199 3 185 -7 -9 -7 -25 -13 -35 -13 -24 0 -88 -42 -88 -58 0 -10 20 -12 83 -10 l82 3 3 30 c5 54 26 59 236 63 135 3 186 1 182 -7 -4 -6 -17 -11 -29 -11 -21 0 -97 -47 -97 -60 0 -13 29 -20 85 -20 71 0 85 7 85 40 0 20 8 33 30 47 25 16 54 19 217 21 131 2 183 0 173 -7 -8 -6 -23 -11 -33 -11 -19 0 -97 -48 -97 -60 0 -11 39 -20 92 -20 64 0 76 7 83 44 11 54 25 57 283 63 131 3 245 10 255 15 16 8 17 32 17 281 0 150 -5 686 -11 1192 l-11 920 -46 48 c-26 26 -49 47 -53 47 -4 0 -30 23 -57 52 -48 50 -50 51 -102 49 -63 -2 -64 4 -2 12 38 5 47 2 80 -26 l36 -32 -18 31 c-38 65 -97 80 -249 64 -266 -28 -496 -53 -642 -70 -49 -6 -153 -17 -230 -25 -253 -25 -245 -24 -245 -56 0 -21 6 -29 23 -32 19 -4 18 -4 -5 -6 l-28 -1 0 763 0 763 35 13 35 12 0 74 0 73 -47 17 c-55 20 -305 30 -385 15z m1090 -1647 c-10 -2 -26 -2 -35 0 -10 3 -2 5 17 5 19 0 27 -2 18 -5z m-70 -10 c-10 -2 -26 -2 -35 0 -10 3 -2 5 17 5 19 0 27 -2 18 -5z m-100 -10 c-10 -2 -26 -2 -35 0 -10 3 -2 5 17 5 19 0 27 -2 18 -5z m-75 -10 c-13 -2 -33 -2 -45 0 -13 2 -3 4 22 4 25 0 35 -2 23 -4z m-95 -10 c-10 -2 -26 -2 -35 0 -10 3 -2 5 17 5 19 0 27 -2 18 -5z m-80 -10 c-16 -2 -40 -2 -55 0 -16 2 -3 4 27 4 30 0 43 -2 28 -4z m-100 -10 c-10 -2 -26 -2 -35 0 -10 3 -2 5 17 5 19 0 27 -2 18 -5z m-75 -10 c-13 -2 -35 -2 -50 0 -16 2 -5 4 22 4 28 0 40 -2 28 -4z m-620 -70 c-13 -2 -35 -2 -50 0 -16 2 -5 4 22 4 28 0 40 -2 28 -4z m-95 -10 c-10 -2 -28 -2 -40 0 -13 2 -5 4 17 4 22 1 32 -1 23 -4z m-85 -10 c-13 -2 -35 -2 -50 0 -16 2 -5 4 22 4 28 0 40 -2 28 -4z m-95 -10 c-10 -2 -26 -2 -35 0 -10 3 -2 5 17 5 19 0 27 -2 18 -5z m-75 -10 c-13 -2 -35 -2 -50 0 -16 2 -5 4 22 4 28 0 40 -2 28 -4z m-95 -10 c-10 -2 -26 -2 -35 0 -10 3 -2 5 17 5 19 0 27 -2 18 -5z m-95 -10 c-13 -2 -33 -2 -45 0 -13 2 -3 4 22 4 25 0 35 -2 23 -4z m-85 -10 c-10 -2 -26 -2 -35 0 -10 3 -2 5 17 5 19 0 27 -2 18 -5z m-100 -10 c-10 -2 -26 -2 -35 0 -10 3 -2 5 17 5 19 0 27 -2 18 -5z m-75 -10 c-13 -2 -33 -2 -45 0 -13 2 -3 4 22 4 25 0 35 -2 23 -4z m-123 -14 c-25 -4 -63 -7 -85 -7 -38 1 -38 1 10 8 28 4 66 7 85 7 31 0 30 0 -10 -8z m-152 -16 c-10 -2 -26 -2 -35 0 -10 3 -2 5 17 5 19 0 27 -2 18 -5z"/>
 <path d="M2623 113 c31 -2 83 -2 115 0 31 2 5 3 -58 3 -63 0 -89 -1 -57 -3z"/>
 <path d="M2993 113 c26 -2 67 -2 90 0 23 2 2 3 -48 3 -49 0 -68 -1 -42 -3z"/>
 <path d="M2253 103 c15 -2 39 -2 55 0 15 2 2 4 -28 4 -30 0 -43 -2 -27 -4z"/>
 <path d="M2503 103 c9 -2 25 -2 35 0 9 3 1 5 -18 5 -19 0 -27 -2 -17 -5z"/>
 <path d="M1553 92 c-6 -4 48 -6 120 -4 194 4 213 9 42 10 -82 1 -155 -2 -162 -6z"/>
 <path d="M1258 83 c23 -2 61 -2 85 0 23 2 4 4 -43 4 -47 0 -66 -2 -42 -4z"/>
 <path d="M693 73 c43 -2 110 -2 150 0 40 1 5 3 -78 3 -82 0 -115 -2 -72 -3z"/>
 </g>
<g id="layer102" fill="#646162" stroke="none">
 <path d="M1538 4330 c-25 -4 -59 -14 -75 -22 -26 -12 -28 -17 -31 -85 l-3 -71 35 -13 36 -13 2 -750 c2 -413 2 -768 0 -788 -3 -36 -5 -38 -35 -37 -30 2 -31 2 -4 6 22 4 27 9 27 33 0 27 -2 28 -32 24 -18 -2 -82 -9 -143 -15 -113 -10 -206 -21 -355 -39 -47 -5 -123 -14 -170 -20 -47 -5 -123 -14 -170 -20 -47 -5 -152 -17 -235 -25 -217 -22 -251 -31 -302 -78 -55 -49 -57 -96 -69 -1532 -5 -617 -4 -694 10 -725 39 -86 59 -94 250 -98 114 -3 157 -1 152 7 -4 6 -36 11 -76 11 -38 0 -72 5 -75 10 -3 6 -48 10 -99 10 -86 0 -94 2 -116 25 l-23 25 7 472 c3 260 9 642 11 848 3 206 8 493 11 637 7 315 1 299 134 307 l85 5 -69 -9 c-97 -12 -114 -18 -125 -39 -6 -11 -17 -443 -27 -1121 -15 -1021 -15 -1103 0 -1119 15 -14 47 -16 271 -13 146 1 255 -1 255 -7 0 -17 -30 -33 -72 -37 -24 -3 -45 -10 -46 -15 -2 -5 -10 -9 -17 -9 -13 0 -35 -29 -35 -44 0 -3 36 -6 79 -6 82 0 91 5 91 50 0 9 6 22 13 28 7 6 104 12 230 14 180 3 215 1 201 -9 -10 -7 -35 -13 -55 -13 -37 0 -99 -39 -99 -61 0 -6 35 -9 83 -7 80 3 82 4 85 29 2 15 12 35 24 45 18 17 44 20 217 24 108 3 205 9 216 14 l20 9 -20 -16 c-11 -9 -38 -17 -60 -17 -29 0 -49 -8 -72 -29 -18 -16 -33 -31 -33 -35 0 -3 38 -6 85 -6 l84 0 7 35 c3 20 14 40 23 45 10 5 112 10 228 12 166 2 209 0 201 -9 -5 -7 -17 -12 -26 -11 -44 3 -70 -4 -99 -30 -18 -15 -33 -31 -33 -35 0 -4 37 -7 83 -5 l82 3 3 30 c5 54 27 59 235 63 154 3 186 1 182 -10 -3 -7 -19 -14 -37 -15 -38 -3 -95 -52 -76 -65 15 -9 119 -11 142 -2 9 4 16 18 16 34 0 20 8 33 30 47 27 17 53 20 226 21 108 1 201 5 207 9 7 4 6 -1 -2 -10 -8 -11 -21 -15 -32 -12 -11 4 -19 2 -19 -3 0 -6 -9 -8 -20 -5 -12 3 -34 -7 -61 -28 -37 -29 -39 -34 -23 -40 23 -9 117 -11 138 -3 8 3 18 20 21 38 11 54 25 57 283 63 131 3 245 10 255 15 16 8 17 32 17 281 0 150 -5 686 -11 1192 l-11 920 -46 48 c-26 26 -49 47 -53 47 -4 0 -30 23 -57 52 -48 50 -50 51 -102 49 -63 -2 -64 4 -2 12 38 5 47 2 80 -26 l36 -32 -18 31 c-38 65 -97 80 -249 64 -266 -28 -496 -53 -642 -70 -49 -6 -153 -17 -230 -25 -253 -25 -245 -24 -245 -56 0 -21 6 -29 23 -32 19 -4 18 -4 -5 -6 l-28 -1 0 763 0 763 35 13 35 12 0 74 0 73 -47 17 c-55 20 -305 30 -385 15z m1662 -1649 c14 -27 14 -414 -1 -406 -6 4 -10 34 -9 68 1 34 1 122 1 195 l-1 133 -32 14 -33 14 32 1 c22 0 36 -6 43 -19z m-572 2 c-10 -2 -26 -2 -35 0 -10 3 -2 5 17 5 19 0 27 -2 18 -5z m-70 -10 c-10 -2 -26 -2 -35 0 -10 3 -2 5 17 5 19 0 27 -2 18 -5z m450 0 c-10 -2 -26 -2 -35 0 -10 3 -2 5 17 5 19 0 27 -2 18 -5z m-550 -10 c-10 -2 -26 -2 -35 0 -10 3 -2 5 17 5 19 0 27 -2 18 -5z m-75 -10 c-13 -2 -33 -2 -45 0 -13 2 -3 4 22 4 25 0 35 -2 23 -4z m465 0 c-10 -2 -28 -2 -40 0 -13 2 -5 4 17 4 22 1 32 -1 23 -4z m-560 -10 c-10 -2 -26 -2 -35 0 -10 3 -2 5 17 5 19 0 27 -2 18 -5z m442 -4 c-25 -4 -63 -7 -85 -7 -38 1 -38 1 10 8 28 4 66 7 85 7 31 0 30 0 -10 -8z m-522 -6 c-16 -2 -40 -2 -55 0 -16 2 -3 4 27 4 30 0 43 -2 28 -4z m-100 -10 c-10 -2 -26 -2 -35 0 -10 3 -2 5 17 5 19 0 27 -2 18 -5z m480 0 c-10 -2 -28 -2 -40 0 -13 2 -5 4 17 4 22 1 32 -1 23 -4z m-555 -10 c-13 -2 -35 -2 -50 0 -16 2 -5 4 22 4 28 0 40 -2 28 -4z m470 0 c-13 -2 -33 -2 -45 0 -13 2 -3 4 22 4 25 0 35 -2 23 -4z m-95 -10 c-10 -2 -26 -2 -35 0 -10 3 -2 5 17 5 19 0 27 -2 18 -5z m-180 -20 c-10 -2 -28 -2 -40 0 -13 2 -5 4 17 4 22 1 32 -1 23 -4z m-180 -20 c-10 -2 -26 -2 -35 0 -10 3 -2 5 17 5 19 0 27 -2 18 -5z m-635 -20 c-13 -2 -35 -2 -50 0 -16 2 -5 4 22 4 28 0 40 -2 28 -4z m-95 -10 c-10 -2 -28 -2 -40 0 -13 2 -5 4 17 4 22 1 32 -1 23 -4z m-85 -10 c-13 -2 -35 -2 -50 0 -16 2 -5 4 22 4 28 0 40 -2 28 -4z m-95 -10 c-10 -2 -26 -2 -35 0 -10 3 -2 5 17 5 19 0 27 -2 18 -5z m-75 -10 c-13 -2 -35 -2 -50 0 -16 2 -5 4 22 4 28 0 40 -2 28 -4z m-95 -10 c-10 -2 -26 -2 -35 0 -10 3 -2 5 17 5 19 0 27 -2 18 -5z m450 0 c-10 -2 -26 -2 -35 0 -10 3 -2 5 17 5 19 0 27 -2 18 -5z m-545 -10 c-13 -2 -33 -2 -45 0 -13 2 -3 4 22 4 25 0 35 -2 23 -4z m-85 -10 c-10 -2 -26 -2 -35 0 -10 3 -2 5 17 5 19 0 27 -2 18 -5z m450 0 c-10 -2 -26 -2 -35 0 -10 3 -2 5 17 5 19 0 27 -2 18 -5z m-550 -10 c-10 -2 -26 -2 -35 0 -10 3 -2 5 17 5 19 0 27 -2 18 -5z m-75 -10 c-13 -2 -33 -2 -45 0 -13 2 -3 4 22 4 25 0 35 -2 23 -4z m455 0 c-10 -2 -26 -2 -35 0 -10 3 -2 5 17 5 19 0 27 -2 18 -5z m-578 -14 c-25 -4 -63 -7 -85 -7 -38 1 -38 1 10 8 28 4 66 7 85 7 31 0 30 0 -10 -8z m488 4 c-10 -2 -26 -2 -35 0 -10 3 -2 5 17 5 19 0 27 -2 18 -5z m-75 -10 c-13 -2 -33 -2 -45 0 -13 2 -3 4 22 4 25 0 35 -2 23 -4z m-565 -10 c-10 -2 -26 -2 -35 0 -10 3 -2 5 17 5 19 0 27 -2 18 -5z m442 -4 c-25 -4 -63 -7 -85 -7 -38 1 -38 1 10 8 28 4 66 7 85 7 31 0 30 0 -10 -8z m-142 -16 c-10 -2 -28 -2 -40 0 -13 2 -5 4 17 4 22 1 32 -1 23 -4z m-85 -10 c-13 -2 -33 -2 -45 0 -13 2 -3 4 22 4 25 0 35 -2 23 -4z m-95 -10 c-10 -2 -28 -2 -40 0 -13 2 -5 4 17 4 22 1 32 -1 23 -4z m-90 -10 c-10 -2 -26 -2 -35 0 -10 3 -2 5 17 5 19 0 27 -2 18 -5z m-80 -10 c-10 -2 -28 -2 -40 0 -13 2 -5 4 17 4 22 1 32 -1 23 -4z m-116 -20 c-19 -17 -21 -33 -26 -273 -4 -140 -11 -616 -17 -1058 -8 -644 -8 -807 2 -819 12 -13 76 -14 529 -10 355 3 429 2 240 -3 -151 -4 -392 -8 -534 -9 l-259 -1 6 483 c4 265 9 723 13 1017 7 677 7 669 25 681 26 16 43 10 21 -8z m3048 -649 c0 -188 -3 -283 -10 -279 -6 4 -10 112 -10 291 0 188 3 283 10 279 6 -4 10 -112 10 -291z m10 -609 c0 -19 -4 -37 -10 -40 -6 -4 -10 12 -10 40 0 28 4 44 10 40 6 -3 10 -21 10 -40z m0 -316 c0 -144 -3 -218 -10 -214 -6 4 -10 90 -10 226 0 144 3 218 10 214 6 -4 10 -90 10 -226z m151 -153 c0 -75 -2 -140 -5 -143 -3 -4 -6 60 -6 142 0 82 2 146 5 144 2 -3 5 -67 6 -143z m-151 -356 c0 -12 -9 -24 -22 -29 -36 -13 -1014 -28 -1027 -16 -2 3 90 6 205 7 115 1 223 2 239 3 17 1 148 2 293 3 l264 2 21 25 c27 30 27 30 27 5z m-1198 -57 c-51 -2 -132 -2 -180 0 -48 1 -6 3 93 3 99 0 138 -2 87 -3z m-684 -10 c-16 -2 -40 -2 -55 0 -16 2 -3 4 27 4 30 0 43 -2 28 -4z m80 0 c-10 -2 -26 -2 -35 0 -10 3 -2 5 17 5 19 0 27 -2 18 -5z m175 0 c-18 -2 -48 -2 -65 0 -18 2 -4 4 32 4 36 0 50 -2 33 -4z m1105 -40 c-32 -2 -84 -2 -115 0 -32 2 -6 3 57 3 63 0 89 -1 58 -3z m-725 -10 c-13 -2 -35 -2 -50 0 -16 2 -5 4 22 4 28 0 40 -2 28 -4z m300 0 c-40 -2 -106 -2 -145 0 -40 1 -8 3 72 3 80 0 112 -2 73 -3z m-848 -14 c-49 -4 -137 -6 -195 -6 l-105 1 95 6 c52 3 140 6 195 7 l100 0 -90 -8z m338 4 c-35 -2 -91 -2 -125 0 -35 2 -7 3 62 3 69 0 97 -1 63 -3z m-838 -13 c-38 -4 -108 -7 -155 -7 l-85 0 65 7 c36 4 106 7 155 7 l90 0 -70 -7z"/>
 <path d="M2623 113 c31 -2 83 -2 115 0 31 2 5 3 -58 3 -63 0 -89 -1 -57 -3z"/>
 <path d="M2993 113 c26 -2 67 -2 90 0 23 2 2 3 -48 3 -49 0 -68 -1 -42 -3z"/>
 <path d="M340 100 c-53 -7 -52 -7 30 -9 127 -4 194 -1 205 10 10 10 -147 10 -235 -1z"/>
 <path d="M2253 103 c15 -2 39 -2 55 0 15 2 2 4 -28 4 -30 0 -43 -2 -27 -4z"/>
 <path d="M1557 93 c-3 -5 50 -7 116 -5 190 4 207 8 40 10 -83 1 -154 -1 -156 -5z"/>
 <path d="M1258 83 c23 -2 61 -2 85 0 23 2 4 4 -43 4 -47 0 -66 -2 -42 -4z"/>
 <path d="M688 73 c39 -2 105 -2 145 0 39 1 7 3 -73 3 -80 0 -112 -2 -72 -3z"/>
 </g>
<g id="layer103" fill="#827f7f" stroke="none">
 <path d="M1538 4330 c-25 -4 -59 -14 -75 -22 -26 -12 -28 -17 -31 -85 l-3 -71 35 -13 36 -13 2 -750 c2 -413 2 -768 0 -788 -3 -36 -5 -38 -35 -37 -30 2 -31 2 -4 6 22 4 27 9 27 33 0 27 -2 28 -32 24 -18 -2 -82 -9 -143 -15 -113 -10 -206 -21 -355 -39 -47 -5 -123 -14 -170 -20 -47 -5 -123 -14 -170 -20 -47 -5 -152 -17 -235 -25 -217 -22 -251 -31 -302 -78 -55 -49 -57 -96 -69 -1532 -5 -617 -4 -694 10 -725 39 -86 59 -94 250 -98 114 -3 157 -1 152 7 -4 6 -36 11 -76 11 -38 0 -72 5 -75 10 -3 6 -48 10 -99 10 -84 0 -94 2 -115 24 -22 23 -22 27 -22 301 1 152 3 280 5 284 2 3 6 281 10 616 3 336 9 708 12 827 8 264 4 254 134 262 l85 5 -69 -9 c-97 -12 -114 -18 -125 -39 -6 -11 -17 -443 -27 -1121 -15 -1016 -15 -1103 0 -1118 14 -14 42 -16 199 -14 100 1 224 4 274 6 51 2 93 3 93 1 0 -1 -17 -14 -38 -27 -22 -15 -52 -26 -74 -27 -36 0 -98 -41 -98 -63 0 -13 154 -7 162 6 4 6 8 21 8 32 0 12 6 26 13 32 7 6 96 11 220 13 114 2 213 7 220 12 7 4 -80 7 -196 5 -166 -3 -205 -2 -195 8 9 9 75 14 236 16 122 2 222 3 222 2 0 0 -20 -15 -44 -32 -32 -23 -55 -32 -83 -32 -32 0 -46 -7 -73 -35 l-35 -36 85 3 c84 3 85 3 88 30 2 15 15 37 29 48 24 18 40 20 214 20 122 0 190 4 194 11 5 7 -49 9 -178 7 -147 -2 -183 0 -175 10 8 9 64 12 217 12 l206 0 -30 -25 c-21 -17 -43 -24 -73 -25 -31 0 -50 -7 -72 -27 -17 -14 -30 -30 -30 -35 0 -4 36 -8 80 -8 l79 0 7 35 c3 20 14 40 24 45 9 5 107 10 217 10 110 1 206 6 214 11 9 6 -56 9 -189 7 -182 -3 -227 1 -189 14 16 6 437 11 437 5 0 -2 -19 -17 -42 -32 -28 -19 -54 -28 -78 -27 -27 1 -43 -6 -70 -31 l-34 -32 73 -3 c91 -4 101 0 101 35 0 52 24 58 239 61 107 1 197 4 199 7 3 3 12 5 21 5 35 0 -17 -32 -59 -36 -51 -5 -121 -51 -99 -65 16 -10 120 -12 143 -3 9 4 16 18 16 34 0 20 8 33 30 47 27 17 52 20 221 21 107 1 198 6 207 12 12 7 -43 9 -176 8 -105 -2 -192 0 -192 5 0 4 42 7 93 7 50 1 148 3 217 6 l125 6 -44 -33 c-30 -23 -56 -33 -82 -34 -26 -1 -48 -10 -74 -32 l-36 -31 29 -7 c30 -6 108 -5 129 3 7 2 15 18 18 36 11 54 25 57 283 63 131 3 245 10 255 15 16 8 17 32 17 281 0 150 -5 686 -11 1192 l-11 920 -39 40 -39 40 0 -151 c0 -136 9 -824 25 -1900 5 -356 4 -382 -12 -397 -15 -13 -50 -16 -201 -19 -100 -2 -182 0 -182 5 0 4 71 7 158 7 131 0 162 3 181 17 l24 16 -6 526 c-4 289 -9 782 -12 1096 -7 755 -10 823 -37 852 -12 13 -18 23 -14 23 15 0 -28 58 -56 74 -38 23 -91 27 -201 16 -266 -28 -496 -53 -642 -70 -49 -6 -153 -17 -230 -25 -253 -25 -245 -24 -245 -56 0 -21 6 -29 23 -32 20 -4 19 -4 -4 -6 -23 -1 -27 4 -30 32 -2 17 -3 361 -1 763 l2 730 35 13 35 12 0 74 0 73 -47 17 c-55 20 -305 30 -385 15z m1713 -1598 c24 -22 29 -31 19 -37 -8 -5 -11 -4 -7 2 14 22 -32 46 -86 46 -51 0 -51 0 -12 7 22 4 43 8 47 9 4 0 22 -12 39 -27z m-46 -41 c6 -11 12 -284 20 -951 3 -256 8 -695 11 -976 5 -452 4 -512 -9 -526 -18 -17 -196 -24 -877 -33 -212 -3 -488 -8 -615 -11 -126 -3 -227 -3 -224 0 7 7 608 25 1208 35 l464 8 18 22 c17 21 18 40 14 219 -3 109 -10 642 -16 1187 -9 905 -12 991 -27 1007 -16 16 -34 15 -292 -17 -151 -18 -405 -48 -565 -65 -522 -56 -904 -99 -1255 -140 -189 -22 -462 -54 -606 -70 -143 -16 -268 -32 -277 -36 -9 -3 -18 -13 -21 -22 -3 -10 -10 -393 -15 -852 -6 -459 -13 -929 -16 -1045 -5 -166 -3 -214 7 -228 13 -17 40 -18 622 -8 335 6 611 9 613 7 10 -9 -171 -16 -691 -25 -413 -8 -553 -8 -564 1 -11 10 -12 56 -8 267 3 141 8 432 11 646 15 1134 17 1255 30 1265 14 11 95 21 1111 135 689 76 1420 161 1724 198 139 18 217 20 225 8z m-577 -8 c-10 -2 -26 -2 -35 0 -10 3 -2 5 17 5 19 0 27 -2 18 -5z m-70 -10 c-10 -2 -26 -2 -35 0 -10 3 -2 5 17 5 19 0 27 -2 18 -5z m-100 -10 c-10 -2 -26 -2 -35 0 -10 3 -2 5 17 5 19 0 27 -2 18 -5z m-75 -10 c-13 -2 -33 -2 -45 0 -13 2 -3 4 22 4 25 0 35 -2 23 -4z m-95 -10 c-10 -2 -26 -2 -35 0 -10 3 -2 5 17 5 19 0 27 -2 18 -5z m-80 -10 c-16 -2 -40 -2 -55 0 -16 2 -3 4 27 4 30 0 43 -2 28 -4z m-100 -10 c-10 -2 -26 -2 -35 0 -10 3 -2 5 17 5 19 0 27 -2 18 -5z m1152 -1216 c7 -647 10 -1183 7 -1191 -4 -9 -12 -16 -18 -16 -8 0 -8 4 1 15 9 10 10 74 6 252 -14 564 -27 2176 -16 2142 4 -14 13 -555 20 -1202z m-1227 1206 c-13 -2 -35 -2 -50 0 -16 2 -5 4 22 4 28 0 40 -2 28 -4z m-620 -70 c-13 -2 -35 -2 -50 0 -16 2 -5 4 22 4 28 0 40 -2 28 -4z m-95 -10 c-10 -2 -28 -2 -40 0 -13 2 -5 4 17 4 22 1 32 -1 23 -4z m-85 -10 c-13 -2 -35 -2 -50 0 -16 2 -5 4 22 4 28 0 40 -2 28 -4z m-95 -10 c-10 -2 -26 -2 -35 0 -10 3 -2 5 17 5 19 0 27 -2 18 -5z m-75 -10 c-13 -2 -35 -2 -50 0 -16 2 -5 4 22 4 28 0 40 -2 28 -4z m-95 -10 c-10 -2 -26 -2 -35 0 -10 3 -2 5 17 5 19 0 27 -2 18 -5z m-95 -10 c-13 -2 -33 -2 -45 0 -13 2 -3 4 22 4 25 0 35 -2 23 -4z m-85 -10 c-10 -2 -26 -2 -35 0 -10 3 -2 5 17 5 19 0 27 -2 18 -5z m-100 -10 c-10 -2 -26 -2 -35 0 -10 3 -2 5 17 5 19 0 27 -2 18 -5z m-75 -10 c-13 -2 -33 -2 -45 0 -13 2 -3 4 22 4 25 0 35 -2 23 -4z m-123 -14 c-25 -4 -63 -7 -85 -7 -38 1 -38 1 10 8 28 4 66 7 85 7 31 0 30 0 -10 -8z m-152 -16 c-10 -2 -26 -2 -35 0 -10 3 -2 5 17 5 19 0 27 -2 18 -5z m1090 -2230 c-10 -2 -26 -2 -35 0 -10 3 -2 5 17 5 19 0 27 -2 18 -5z m1060 -43 c-20 -12 -428 -19 -428 -8 0 9 64 12 280 16 119 2 160 0 148 -8z"/>
 <path d="M2623 113 c31 -2 83 -2 115 0 31 2 5 3 -58 3 -63 0 -89 -1 -57 -3z"/>
 <path d="M2993 113 c26 -2 67 -2 90 0 23 2 2 3 -48 3 -49 0 -68 -1 -42 -3z"/>
 <path d="M425 100 c-111 -5 -119 -6 -50 -9 126 -4 203 0 184 12 -2 1 -62 0 -134 -3z"/>
 <path d="M2253 103 c15 -2 39 -2 55 0 15 2 2 4 -28 4 -30 0 -43 -2 -27 -4z"/>
 <path d="M1557 93 c-3 -5 50 -7 116 -5 190 4 207 8 40 10 -83 1 -154 -1 -156 -5z"/>
 <path d="M1258 83 c23 -2 61 -2 85 0 23 2 4 4 -43 4 -47 0 -66 -2 -42 -4z"/>
 <path d="M688 73 c39 -2 105 -2 145 0 39 1 7 3 -73 3 -80 0 -112 -2 -72 -3z"/>
 </g>
<g id="layer104" fill="#b5b4b5" stroke="none">
 <path d="M1560 4334 c-14 -2 -44 -9 -67 -16 l-43 -11 0 -53 c0 -52 1 -54 28 -54 l27 0 -2 -797 c-2 -439 -3 -810 -3 -824 0 -25 -4 -27 -60 -33 -160 -17 -185 -18 -179 -12 4 4 24 9 44 11 21 2 42 8 49 15 8 8 6 9 -9 4 l-20 -7 20 16 c21 17 90 24 81 8 -3 -4 -17 -6 -31 -3 -15 2 -25 0 -25 -7 0 -16 27 -25 48 -15 9 4 28 8 41 8 25 1 43 26 19 26 -10 0 -9 3 2 10 8 5 12 11 10 13 -7 5 -253 -19 -530 -53 -47 -5 -123 -14 -170 -20 -47 -5 -123 -14 -170 -20 -47 -5 -152 -17 -235 -25 -217 -22 -251 -31 -302 -78 -55 -49 -57 -96 -69 -1532 -5 -617 -4 -694 10 -725 39 -86 59 -94 250 -98 114 -3 157 -1 152 7 -5 7 -54 11 -142 11 -74 0 -134 4 -134 8 0 4 -15 9 -32 10 -18 2 -43 13 -56 25 l-22 23 -3 434 c-2 239 -1 368 3 285 l6 -150 2 162 c1 94 -2 163 -7 165 -6 2 -7 126 -4 323 4 175 10 310 14 300 4 -11 6 83 5 208 -1 126 1 230 6 233 4 3 7 47 6 97 l-2 92 -6 -95 -6 -95 -2 96 c-3 146 27 212 107 239 34 11 42 10 62 -4 13 -9 33 -17 44 -17 11 -1 -11 -5 -49 -10 -96 -11 -114 -16 -126 -38 -6 -13 -13 -217 -17 -546 -3 -289 -10 -520 -14 -513 -6 9 -9 9 -9 1 0 -6 5 -15 11 -19 7 -4 9 -40 5 -108 -3 -55 -8 -310 -12 -566 -5 -379 -3 -468 8 -482 10 -14 30 -18 98 -18 47 0 103 1 125 3 22 2 220 8 440 12 l400 7 -50 -36 c-36 -26 -60 -36 -88 -36 -26 0 -46 -8 -67 -27 -17 -14 -30 -30 -30 -35 0 -4 18 -8 40 -8 22 0 40 4 40 10 0 5 8 14 19 19 15 9 18 7 17 -7 -1 -11 6 -17 19 -17 14 0 21 8 23 27 2 15 15 37 29 48 24 18 40 20 207 20 99 0 186 4 193 8 6 4 -72 6 -173 4 -164 -3 -183 -2 -178 12 5 13 24 16 98 16 51 0 149 3 217 6 l124 5 -35 -30 c-26 -24 -44 -31 -75 -31 -31 0 -47 -7 -75 -33 l-34 -32 43 -3 c32 -2 47 1 53 12 11 19 29 21 25 4 -1 -7 8 -14 20 -16 18 -3 23 3 29 33 4 21 15 40 27 47 12 6 28 19 37 29 13 16 38 18 238 21 122 2 222 1 222 -2 -2 -15 -88 -62 -121 -65 -44 -4 -67 -15 -93 -44 -19 -21 -19 -21 23 -21 25 0 49 6 58 15 14 14 16 14 28 -1 18 -25 45 -11 45 23 0 52 24 58 238 60 107 2 201 7 209 12 9 4 -71 6 -183 3 -180 -4 -198 -3 -184 11 12 13 51 17 233 19 119 2 217 2 217 1 0 -1 -22 -17 -49 -37 -36 -27 -59 -36 -87 -36 -29 0 -48 -8 -72 -29 -26 -23 -29 -30 -16 -35 32 -12 69 -6 82 14 7 11 17 20 23 20 5 0 8 -4 5 -8 -9 -14 10 -33 27 -26 11 4 17 17 17 35 0 22 8 34 30 47 25 16 57 19 217 21 103 1 194 6 201 10 8 5 -72 6 -177 3 -137 -3 -191 -2 -191 6 0 20 39 23 245 20 l199 -3 -44 -32 c-31 -23 -55 -33 -81 -33 -44 0 -110 -47 -87 -61 21 -14 68 -10 74 5 3 8 13 17 22 21 9 3 13 3 9 -1 -11 -11 13 -34 28 -27 8 3 17 19 20 37 11 54 25 57 283 63 131 3 246 10 256 16 19 9 19 29 11 821 -4 446 -11 975 -14 1176 l-6 364 -32 7 -33 6 0 -286 c0 -157 5 -684 10 -1170 9 -745 9 -887 -3 -898 -18 -18 -408 -32 -391 -14 7 7 70 14 170 17 127 5 163 10 178 23 17 15 18 34 12 416 -4 220 -11 738 -16 1150 -6 413 -13 773 -16 801 -5 45 -8 50 -30 50 -24 0 -24 0 -24 -115 -2 -371 2 -952 10 -1571 4 -390 4 -712 0 -721 -7 -13 -37 -17 -167 -22 -213 -9 -446 -7 -378 4 28 4 -236 6 -585 4 -349 -2 -628 0 -620 4 8 4 263 13 565 20 303 6 674 14 825 17 207 5 278 9 289 19 12 11 12 190 1 1202 -7 654 -17 1196 -22 1206 -12 23 -25 22 -310 -13 -134 -16 -351 -41 -483 -55 -617 -66 -924 -100 -1345 -150 -250 -29 -545 -63 -655 -75 -173 -19 -202 -24 -217 -42 -16 -18 -18 -51 -20 -342 -1 -176 -2 -348 -4 -381 -1 -33 -5 -362 -9 -730 -7 -616 -6 -672 9 -684 13 -11 49 -13 179 -8 277 11 1124 17 1087 8 -19 -5 -186 -11 -370 -15 -184 -3 -464 -9 -622 -13 -239 -5 -290 -4 -304 8 -16 13 -16 51 -10 494 3 264 9 667 11 895 7 556 13 762 20 782 4 9 19 19 33 22 15 3 376 44 802 91 426 47 870 97 985 111 465 55 791 95 800 99 6 2 -47 2 -117 0 -84 -3 -128 -1 -128 6 0 6 -4 7 -10 4 -5 -3 -7 0 -4 8 4 10 -3 13 -26 12 -56 -3 -16 14 45 20 52 4 56 4 26 -6 -42 -13 -30 -25 29 -31 25 -3 37 -3 28 -1 -10 3 -18 9 -18 15 0 6 8 7 17 3 10 -3 47 -8 83 -11 49 -3 60 -2 45 6 -18 9 -17 10 5 5 32 -6 185 6 172 14 -6 3 20 6 56 6 37 0 105 5 152 10 73 8 80 10 50 16 -34 8 -34 8 7 6 35 -2 40 0 30 12 -9 10 -4 10 21 -3 34 -18 44 -30 15 -19 -10 4 -5 -5 12 -19 16 -14 33 -24 38 -21 12 8 -24 59 -55 78 -30 17 -154 33 -145 18 3 -4 -25 -8 -61 -8 -37 -1 -139 -9 -227 -19 -88 -10 -196 -22 -240 -26 -44 -5 -120 -14 -170 -20 -49 -6 -153 -17 -230 -25 -202 -20 -245 -27 -245 -36 0 -5 11 -9 24 -9 13 0 29 -7 36 -15 7 -8 17 -15 22 -15 6 0 6 6 -1 14 -7 8 -8 16 -4 19 16 9 141 18 146 10 3 -4 -9 -8 -26 -8 -39 0 -52 -17 -18 -22 37 -5 39 -13 3 -13 -16 0 -32 5 -34 10 -2 6 -18 13 -37 15 -27 4 -31 2 -21 -10 6 -7 21 -16 33 -18 12 -2 1 -5 -26 -6 -33 -1 -46 3 -45 12 2 7 -9 13 -24 15 -20 2 -28 -1 -28 -12 0 -10 9 -16 22 -16 31 0 19 -6 -24 -13 l-37 -6 3 352 c1 245 6 361 14 380 9 20 12 138 12 415 l0 388 31 11 c30 12 31 15 25 50 -3 21 -6 56 -6 79 0 38 -2 41 -37 53 -37 13 -303 24 -353 15z m812 -1641 c-20 -3 -32 -9 -29 -16 6 -19 47 -20 61 -1 9 11 18 14 27 8 14 -9 19 -10 41 -13 33 -3 -10 -13 -76 -17 -80 -5 -81 -4 -67 44 1 1 18 1 39 0 l37 -1 -33 -4z m-157 -22 c-11 -5 -26 -6 -34 -3 -9 3 -12 0 -9 -9 3 -8 17 -14 31 -14 15 1 27 -3 27 -7 0 -4 -24 -7 -52 -7 -29 1 -45 3 -35 6 9 2 17 13 17 24 0 15 7 19 38 18 28 0 32 -2 17 -8z m84 -27 c2 -2 -10 -4 -27 -4 -18 0 -32 5 -32 10 0 9 47 4 59 -6z m-1032 -80 c-10 -10 -77 -12 -77 -2 0 4 19 8 42 8 23 0 38 -3 35 -6z m-103 -13 c3 -4 -6 -6 -19 -3 -14 2 -33 1 -42 -4 -22 -10 -95 -12 -85 -3 16 16 137 25 146 10z m-212 -20 c-45 -8 -45 -26 1 -28 29 -2 37 2 37 14 0 13 3 14 12 5 7 -7 28 -13 48 -13 26 -1 22 -3 -20 -9 -30 -4 -73 -10 -95 -14 -25 -4 -35 -3 -26 2 11 8 11 11 0 18 -8 5 -18 9 -24 10 -34 4 -37 7 -10 14 17 4 48 8 70 8 39 -1 39 -1 7 -7z m278 -1 c22 -7 20 -8 -15 -9 -22 -1 -59 -6 -83 -10 -30 -6 -42 -5 -39 2 2 6 20 12 40 13 21 0 40 4 44 7 8 8 20 8 53 -3z m-459 -22 c-26 -7 -31 -12 -20 -19 21 -13 46 -11 63 6 9 10 17 11 21 5 4 -6 11 -8 16 -4 6 3 18 3 27 -1 16 -6 16 -7 -1 -16 -9 -6 -21 -8 -25 -5 -4 2 -29 0 -56 -5 -48 -9 -83 2 -71 21 3 4 -1 8 -8 7 -6 0 -21 1 -32 3 -26 4 38 17 85 18 l35 0 -34 -10z m-115 -23 c12 -8 24 -12 26 -9 3 2 11 -3 19 -12 13 -16 12 -17 -11 -11 -14 3 -45 2 -69 -3 -52 -9 -72 -4 -64 17 4 9 0 14 -8 13 -36 -5 -51 3 -19 10 59 12 105 11 126 -5z m-201 -14 c-3 -5 -17 -8 -31 -5 -18 3 -25 1 -22 -8 6 -17 45 -23 61 -10 7 6 27 7 47 3 34 -7 34 -7 -20 -14 -76 -9 -128 -9 -112 1 7 5 10 16 6 25 -5 14 1 17 36 17 23 0 39 -4 35 -9z m-160 -21 c-3 -6 -20 -8 -38 -5 -47 9 -46 15 2 15 26 0 40 -4 36 -10z m40 -20 c17 -7 14 -9 -13 -9 -20 -1 -31 3 -27 9 7 12 13 12 40 0z m-258 -1862 c-2 -18 -4 -6 -4 27 0 33 2 48 4 33 2 -15 2 -42 0 -60z"/>
 <path d="M572 2478 c5 -15 67 -18 71 -3 1 6 -15 11 -37 13 -28 3 -37 0 -34 -10z"/>
 <path d="M1886 2682 c-2 -4 -1 -23 4 -42 l8 -35 -1 42 c-2 45 -3 48 -11 35z"/>
 <path d="M161 2429 c-13 -5 -22 -11 -19 -14 8 -8 78 7 72 16 -6 11 -22 11 -53 -2z"/>
 <path d="M600 100 c-26 -22 -45 -30 -76 -30 -33 0 -49 -7 -75 -32 l-34 -33 44 -3 c35 -3 46 1 58 17 17 25 31 27 29 4 0 -10 7 -19 16 -21 12 -2 19 5 23 25 12 58 12 58 156 63 l134 6 -119 2 c-104 2 -117 4 -106 17 23 27 -12 17 -50 -15z"/>
 <path d="M1745 120 l-170 -6 180 -1 c99 -1 189 2 200 7 17 7 15 8 -10 7 -16 -1 -106 -4 -200 -7z"/>
 <path d="M2623 113 c31 -2 83 -2 115 0 31 2 5 3 -58 3 -63 0 -89 -1 -57 -3z"/>
 <path d="M2993 113 c26 -2 67 -2 90 0 23 2 2 3 -48 3 -49 0 -68 -1 -42 -3z"/>
 <path d="M910 100 l-35 -7 40 -1 c22 -1 58 3 80 7 l40 9 -45 0 c-25 -1 -61 -4 -80 -8z"/>
 <path d="M2253 103 c15 -2 39 -2 55 0 15 2 2 4 -28 4 -30 0 -43 -2 -27 -4z"/>
 <path d="M1557 93 c-3 -5 50 -7 116 -5 190 4 207 8 40 10 -83 1 -154 -1 -156 -5z"/>
 <path d="M1258 83 c23 -2 61 -2 85 0 23 2 4 4 -43 4 -47 0 -66 -2 -42 -4z"/>
 <path d="M688 73 c39 -2 105 -2 145 0 39 1 7 3 -73 3 -80 0 -112 -2 -72 -3z"/>
 </g>
<g id="layer105" fill="#ecebeb" stroke="none">
 <path d="M1560 4333 c-66 -10 -65 -9 -65 -64 l0 -51 85 7 c47 4 88 9 93 12 4 2 7 26 7 54 l0 49 -47 -1 c-27 -1 -59 -3 -73 -6z"/>
 <path d="M1779 4324 c-2 -59 -6 -76 -17 -83 -7 -4 16 -13 55 -21 38 -7 75 -15 83 -17 8 -2 3 2 -11 11 -21 12 -26 23 -28 63 -1 26 -4 49 -5 51 -2 1 -20 6 -40 9 -30 5 -36 3 -37 -13z"/>
 <path d="M1562 4192 l-23 -7 1 -795 c0 -437 3 -805 6 -817 7 -26 27 -21 -271 -57 -450 -55 -646 -84 -470 -70 100 8 675 69 900 96 199 24 218 40 35 30 l-95 -5 6 399 c4 220 11 422 17 449 7 30 11 197 11 418 l1 367 -47 -1 c-27 -1 -58 -4 -71 -7z"/>
 <path d="M1758 4193 c-2 -5 -4 -177 -3 -383 1 -331 3 -382 19 -435 l18 -60 16 30 c14 26 17 84 20 434 3 330 2 405 -10 412 -16 11 -56 12 -60 2z"/>
 <path d="M3015 2790 c-38 -4 -140 -16 -225 -25 -229 -25 -305 -33 -405 -45 -49 -6 -153 -17 -230 -25 -202 -20 -245 -27 -245 -36 0 -12 23 -11 164 6 67 8 133 15 146 14 14 -1 50 4 80 10 30 6 68 11 85 10 16 -1 56 3 88 10 31 7 67 11 80 10 12 -1 54 3 92 9 39 6 117 16 175 22 58 7 127 16 155 20 32 5 52 4 56 -2 4 -7 8 -6 11 2 4 12 75 15 123 6 11 -3 24 -5 28 -5 5 -1 5 -5 2 -11 -3 -5 0 -7 8 -4 8 3 28 -7 46 -21 31 -27 41 -24 18 6 -39 50 -113 64 -252 49z"/>
 <path d="M3100 2670 c-34 -7 -34 -7 13 -9 39 -1 47 -4 47 -19 0 -39 -30 -50 -152 -56 -157 -9 -318 -9 -325 -2 -15 15 18 26 102 36 50 6 133 17 185 25 150 23 15 11 -340 -29 -173 -20 -488 -54 -700 -76 -346 -36 -554 -60 -925 -105 -66 -8 -280 -33 -475 -55 -229 -26 -357 -45 -362 -53 -4 -6 -8 -109 -9 -227 -1 -118 -2 -240 -3 -270 -1 -30 -5 -345 -9 -700 -5 -355 -10 -706 -12 -781 -2 -74 0 -141 5 -148 6 -11 68 -13 331 -7 178 3 488 8 689 11 201 3 514 10 695 15 182 6 492 13 690 16 198 4 362 9 365 12 3 2 -207 2 -466 -1 -259 -3 -477 -1 -483 3 -21 12 14 20 48 10 16 -4 32 -5 36 -2 4 4 37 8 73 9 37 1 96 4 132 7 36 3 121 8 190 11 69 3 152 7 185 10 33 2 103 7 155 10 52 4 111 8 130 10 118 12 243 14 260 5 12 -6 20 -21 20 -35 0 -20 -6 -25 -37 -30 -63 -10 -71 -14 -19 -11 26 2 54 10 62 17 11 12 11 204 -2 1203 -10 838 -17 1193 -25 1203 -12 14 -16 14 -69 3z m-2902 -2390 c29 -39 28 -60 -3 -60 -33 0 -51 43 -36 88 3 9 21 -3 39 -28z"/>
 <path d="M1350 2604 c-129 -13 -243 -26 -390 -44 -47 -5 -123 -14 -170 -20 -47 -5 -123 -14 -170 -20 -47 -5 -152 -17 -235 -25 -217 -22 -251 -31 -302 -78 -55 -49 -57 -96 -69 -1532 -5 -617 -4 -694 10 -725 39 -86 59 -94 251 -98 110 -3 157 -1 150 7 -6 5 -71 12 -145 14 -209 6 -233 18 -245 120 -9 84 -2 1202 10 1507 2 41 4 145 5 230 2 93 7 161 14 169 8 11 8 13 -1 7 -10 -5 -13 14 -13 87 0 140 27 203 99 233 34 14 159 32 271 40 30 2 82 8 115 13 116 18 256 34 261 28 3 -3 20 -1 37 4 18 5 73 14 122 19 277 30 404 43 442 45 55 3 93 13 93 25 0 6 -3 9 -7 9 -5 -1 -64 -8 -133 -15z"/>
 <path d="M3310 2206 c0 -33 -20 -44 -37 -20 -12 16 -13 -31 -7 -326 7 -343 14 -464 14 -232 0 92 3 121 13 120 8 -2 14 -30 18 -78 3 -41 6 68 7 243 1 174 0 317 -3 317 -3 0 -5 -11 -5 -24z"/>
 <path d="M3381 1856 c-1 -265 3 -335 13 -245 2 19 4 38 5 43 0 4 12 6 26 4 25 -5 25 -5 25 67 0 123 -13 374 -19 373 -26 -3 -40 5 -44 25 -2 12 -5 -108 -6 -267z"/>
 <path d="M3320 1321 c-3 -47 -10 -76 -17 -79 -8 -2 -13 6 -13 24 0 15 -3 24 -7 20 -10 -10 -3 -917 7 -935 7 -12 9 -12 10 -3 0 22 24 8 31 -19 4 -13 7 118 7 291 -1 378 -12 808 -18 701z"/>
 <path d="M3392 835 c-2 -405 4 -590 18 -535 4 16 13 25 25 25 19 0 20 11 23 360 2 198 0 393 -3 433 -6 67 -8 72 -30 72 -19 0 -25 6 -28 33 -2 17 -4 -157 -5 -388z"/>
 <path d="M1260 178 c-215 -5 -379 -13 -385 -19 -6 -6 113 -9 335 -7 390 3 712 12 660 17 -31 4 -28 5 20 11 78 10 -178 9 -630 -2z"/>
 <path d="M2929 129 c-23 -19 -23 -20 -2 -10 12 6 25 16 28 21 10 16 -1 12 -26 -11z"/>
 <path d="M2461 120 c-13 -11 -19 -20 -13 -20 10 0 42 27 42 36 0 7 -4 5 -29 -16z"/>
 <path d="M1999 109 c-23 -19 -23 -20 -2 -10 12 6 25 16 28 21 10 16 -1 12 -26 -11z"/>
 <path d="M611 99 c-13 -11 -22 -22 -19 -24 2 -3 15 6 28 20 28 30 24 32 -9 4z"/>
 <path d="M2623 113 c31 -2 83 -2 115 0 31 2 5 3 -58 3 -63 0 -89 -1 -57 -3z"/>
 <path d="M2993 113 c26 -2 67 -2 90 0 23 2 2 3 -48 3 -49 0 -68 -1 -42 -3z"/>
 <path d="M1061 84 c-12 -15 -21 -38 -20 -53 1 -23 2 -21 9 8 5 19 19 43 32 53 12 9 18 18 11 18 -6 0 -21 -12 -32 -26z"/>
 <path d="M2253 103 c15 -2 39 -2 55 0 15 2 2 4 -28 4 -30 0 -43 -2 -27 -4z"/>
 <path d="M1557 93 c-3 -5 50 -7 116 -5 190 4 207 8 40 10 -83 1 -154 -1 -156 -5z"/>
 <path d="M2785 80 l-30 -20 25 -1 c40 -2 53 2 78 22 l25 19 -34 0 c-19 0 -47 -9 -64 -20z"/>
 <path d="M2897 94 c-4 -4 -7 -19 -6 -33 l0 -26 10 24 c10 26 8 47 -4 35z"/>
 <path d="M1258 83 c23 -2 61 -2 85 0 23 2 4 4 -43 4 -47 0 -66 -2 -42 -4z"/>
 <path d="M1400 68 l-35 -23 32 -3 c18 -2 43 4 59 14 24 16 25 19 8 25 -27 11 -26 11 -64 -13z"/>
 <path d="M2333 75 c-39 -17 -41 -21 -8 -27 15 -3 39 4 62 18 l38 23 -30 0 c-16 0 -45 -6 -62 -14z"/>
 <path d="M688 73 c39 -2 105 -2 145 0 39 1 7 3 -73 3 -80 0 -112 -2 -72 -3z"/>
 <path d="M1500 51 c0 -17 2 -31 4 -31 8 0 13 51 5 56 -5 3 -9 -9 -9 -25z"/>
 <path d="M1851 60 l-23 -20 37 0 c22 0 47 8 62 20 l26 20 -39 0 c-24 -1 -48 -8 -63 -20z"/>
 <path d="M1971 68 c0 -9 -4 -25 -7 -35 -5 -17 -5 -17 6 0 6 10 9 25 7 35 -4 15 -5 15 -6 0z"/>
 <path d="M467 50 c-16 -16 -16 -18 -2 -24 17 -6 79 15 88 30 10 17 -68 11 -86 -6z"/>
 <path d="M576 34 c-4 -14 -5 -29 -2 -31 3 -3 8 7 12 21 3 15 4 29 1 32 -2 3 -8 -7 -11 -22z"/>
 <path d="M927 42 c-15 -17 -15 -18 11 -20 15 -1 41 7 57 18 l30 20 -41 0 c-27 0 -47 -6 -57 -18z"/>
 </g>

</svg>