<!DOCTYPE svg PUBLIC "-//W3C//DTD SVG 20010904//EN" "http://www.w3.org/TR/2001/REC-SVG-20010904/DTD/svg10.dtd">
<svg version="1.0" xmlns="http://www.w3.org/2000/svg" width="64px" height="64px" viewBox="0 0 640 640" preserveAspectRatio="xMidYMid meet">
<g id="layer101" fill="#000000" stroke="none">
 <path d="M140 614 c-13 -33 -13 -555 0 -588 l10 -26 170 0 170 0 10 26 c13 33 13 555 0 588 l-10 26 -170 0 -170 0 -10 -26z m139 -28 c-8 -17 -8 -29 0 -45 11 -20 10 -21 -54 -21 l-65 0 0 29 c0 55 7 61 71 61 58 0 58 0 48 -24z m195 8 c3 -9 6 -29 6 -45 l0 -29 -65 0 c-64 0 -65 0 -54 24 8 17 8 29 0 45 -11 20 -10 21 48 21 44 0 60 -4 65 -16z m-144 -29 c0 -8 -4 -15 -10 -15 -5 0 -10 7 -10 15 0 8 5 15 10 15 6 0 10 -7 10 -15z m150 -275 l0 -200 -160 0 -160 0 0 200 0 200 160 0 160 0 0 -200z m-216 -245 c-8 -21 -90 -21 -98 0 -4 12 5 15 49 15 44 0 53 -3 49 -15z m210 0 c-8 -21 -90 -21 -98 0 -4 12 5 15 49 15 44 0 53 -3 49 -15z"/>
 <path d="M16 208 c-33 -47 -12 -168 30 -168 18 0 18 19 -1 44 -8 11 -15 34 -15 51 0 17 7 40 15 51 8 10 15 25 15 32 0 20 -28 14 -44 -10z"/>
 <path d="M580 218 c0 -7 7 -22 15 -32 19 -25 19 -77 0 -102 -19 -25 -19 -44 -1 -44 26 0 46 42 46 95 0 30 -6 60 -16 73 -16 24 -44 30 -44 10z"/>
 <path d="M66 188 c-22 -31 -20 -81 3 -109 26 -32 38 -17 22 26 -9 25 -9 40 -2 54 25 45 5 69 -23 29z"/>
 <path d="M540 195 c0 -8 5 -24 12 -34 9 -15 9 -25 0 -46 -16 -34 -15 -45 1 -45 16 0 37 42 37 73 0 25 -26 67 -41 67 -5 0 -9 -7 -9 -15z"/>
 </g>

</svg>