<!DOCTYPE svg PUBLIC "-//W3C//DTD SVG 20010904//EN" "http://www.w3.org/TR/2001/REC-SVG-20010904/DTD/svg10.dtd">
<svg version="1.0" xmlns="http://www.w3.org/2000/svg" width="35px" height="54px" viewBox="0 0 350 540" preserveAspectRatio="xMidYMid meet">
<g id="layer101" fill="#670e7a" stroke="none">
 <path d="M70 439 c0 -76 3 -100 13 -97 7 3 14 33 17 84 6 97 23 84 22 -18 -1 -83 21 -91 26 -10 3 46 5 51 25 49 19 -2 23 -10 27 -51 3 -27 11 -51 18 -54 9 -3 12 16 12 71 0 47 5 78 13 85 9 8 12 -7 12 -70 0 -56 4 -83 13 -85 9 -4 12 20 12 96 0 117 -6 123 -68 66 l-39 -34 -33 34 c-19 19 -42 35 -52 35 -16 0 -18 -10 -18 -101z"/>
 <path d="M151 348 c-6 -7 -24 -13 -39 -13 -18 0 -30 -7 -37 -22 -5 -12 -20 -27 -33 -33 -19 -8 -23 -16 -20 -35 3 -14 -1 -30 -8 -36 -17 -14 -18 -41 -2 -57 6 -6 12 -26 12 -44 1 -26 6 -34 23 -36 14 -2 23 -11 25 -25 2 -16 11 -23 33 -25 17 -1 40 -8 53 -14 18 -9 28 -9 42 0 11 7 31 12 45 12 18 0 28 7 35 25 5 14 16 25 24 25 18 0 35 30 28 48 -2 8 1 25 9 38 10 20 10 28 -1 48 -7 14 -10 32 -6 41 4 11 -3 21 -22 32 -16 9 -33 26 -38 37 -6 14 -18 21 -36 21 -15 0 -33 6 -39 13 -7 6 -18 12 -24 12 -6 0 -17 -6 -24 -12z m78 -43 c16 5 23 1 31 -19 6 -16 17 -26 30 -26 16 0 19 -5 14 -28 -4 -19 -1 -32 10 -41 15 -13 15 -15 0 -32 -9 -10 -14 -27 -11 -38 3 -14 -2 -21 -19 -25 -15 -4 -24 -14 -24 -26 0 -15 -7 -20 -28 -20 -15 0 -34 -6 -40 -12 -10 -10 -17 -10 -32 0 -11 6 -29 12 -41 12 -13 0 -23 8 -26 20 -3 11 -15 23 -28 26 -17 4 -21 11 -17 30 2 13 -1 31 -8 39 -10 12 -10 18 1 31 8 9 12 27 11 40 -2 17 2 24 12 24 9 0 22 11 28 25 8 18 16 23 33 19 13 -3 27 1 35 11 12 14 14 14 31 -1 11 -10 25 -13 38 -9z"/>
 <path d="M160 283 c-62 -18 -97 -68 -86 -125 8 -46 45 -78 95 -85 37 -5 44 -2 77 31 34 34 36 40 31 82 -3 26 -13 54 -24 65 -21 21 -70 38 -93 32z m73 -50 c24 -23 22 -81 -5 -110 -42 -45 -128 -13 -128 48 0 78 76 113 133 62z"/>
 </g>

</svg>