<!DOCTYPE svg PUBLIC "-//W3C//DTD SVG 20010904//EN" "http://www.w3.org/TR/2001/REC-SVG-20010904/DTD/svg10.dtd">
<svg version="1.0" xmlns="http://www.w3.org/2000/svg" width="54px" height="54px" viewBox="0 0 540 540" preserveAspectRatio="xMidYMid meet">
<g id="layer101" fill="#670e7a" stroke="none">
 <path d="M102 437 c-56 -56 -102 -107 -102 -113 0 -5 62 -72 138 -147 107 -105 145 -137 165 -137 17 0 28 -7 32 -20 6 -20 25 -26 38 -13 4 3 2 12 -4 20 -9 10 -6 13 17 13 20 0 41 13 71 42 43 42 43 43 43 113 l0 70 -138 138 c-75 75 -142 137 -147 137 -6 0 -56 -46 -113 -103z m237 -61 l124 -124 0 -57 c-1 -48 -5 -61 -29 -86 -15 -16 -36 -29 -46 -29 -19 0 -19 -1 16 67 18 35 11 65 -20 77 -29 11 -43 6 -60 -19 -14 -21 -15 -31 -6 -50 7 -14 19 -25 27 -25 14 0 14 -3 -1 -25 -29 -45 -52 -33 -184 100 l-125 125 85 85 c46 47 87 85 90 85 3 0 61 -56 129 -124z"/>
 <path d="M171 366 c-36 -37 -49 -56 -41 -61 17 -11 118 91 104 105 -7 7 -27 -8 -63 -44z"/>
 <path d="M215 320 c-37 -37 -46 -53 -38 -61 9 -9 25 1 64 38 31 30 49 55 45 61 -11 19 -19 15 -71 -38z"/>
 <path d="M290 507 c0 -7 49 -61 110 -122 103 -103 109 -111 112 -154 5 -70 28 -65 28 6 l0 58 -113 113 c-106 106 -137 128 -137 99z"/>
 </g>

</svg>