<!DOCTYPE svg PUBLIC "-//W3C//DTD SVG 20010904//EN" "http://www.w3.org/TR/2001/REC-SVG-20010904/DTD/svg10.dtd">
<svg version="1.0" xmlns="http://www.w3.org/2000/svg" width="52px" height="54px" viewBox="0 0 520 540" preserveAspectRatio="xMidYMid meet">
<g id="layer101" fill="#670e7a" stroke="none">
 <path d="M296 510 c-60 -53 -71 -136 -25 -194 83 -105 249 -51 249 82 0 86 -56 142 -142 142 -38 0 -54 -6 -82 -30z m150 -18 c90 -73 35 -214 -78 -199 -48 6 -73 28 -88 73 -15 43 1 96 37 124 32 25 100 26 129 2z"/>
 <path d="M370 390 c0 -38 4 -50 15 -50 10 0 15 11 15 35 0 32 2 35 30 35 20 0 30 5 30 15 0 11 -12 15 -45 15 l-45 0 0 -50z"/>
 <path d="M13 444 c-10 -4 -13 -55 -13 -205 l0 -199 40 0 c33 0 40 -3 40 -20 0 -17 7 -20 41 -20 32 0 42 4 46 20 4 17 14 20 54 20 42 0 49 -3 49 -20 0 -17 7 -20 41 -20 32 0 42 4 46 19 4 14 15 21 42 23 l36 3 3 102 c2 87 0 103 -13 103 -10 0 -15 -10 -15 -32 l0 -33 -190 0 -190 0 0 113 0 112 96 0 c86 0 95 2 92 18 -3 15 -17 17 -98 19 -52 1 -101 -1 -107 -3z m397 -334 c0 -35 -3 -40 -23 -40 -12 0 -28 9 -35 20 -18 29 -82 24 -82 -6 0 -10 -14 -14 -50 -14 -37 0 -50 4 -50 14 0 8 -9 18 -21 21 -29 9 -69 -2 -69 -20 0 -9 -10 -15 -25 -15 -22 0 -25 4 -25 40 l0 40 190 0 190 0 0 -40z m-270 -60 c0 -11 -7 -20 -15 -20 -8 0 -15 9 -15 20 0 11 7 20 15 20 8 0 15 -9 15 -20z m190 0 c0 -11 -7 -20 -15 -20 -8 0 -15 9 -15 20 0 11 7 20 15 20 8 0 15 -9 15 -20z"/>
 </g>

</svg>