<!DOCTYPE svg PUBLIC "-//W3C//DTD SVG 20010904//EN" "http://www.w3.org/TR/2001/REC-SVG-20010904/DTD/svg10.dtd">
<svg version="1.0" xmlns="http://www.w3.org/2000/svg" width="54px" height="54px" viewBox="0 0 540 540" preserveAspectRatio="xMidYMid meet">
<g id="layer101" fill="#670e7a" stroke="none">
 <path d="M365 530 c-4 -6 -61 -10 -149 -10 -158 0 -171 -4 -180 -60 -3 -19 -12 -71 -20 -115 -20 -108 -19 -132 4 -155 14 -14 33 -20 67 -20 l48 0 0 -64 c0 -74 20 -106 66 -106 34 0 69 34 69 67 0 52 72 152 96 132 7 -5 47 -9 91 -7 l78 3 0 170 0 170 -82 3 c-49 2 -84 -1 -88 -8z m145 -165 l0 -146 -61 3 -60 3 -2 143 -2 142 63 0 62 0 0 -145z m-160 7 c0 -108 -2 -121 -21 -138 -35 -32 -79 -101 -86 -136 -9 -52 -22 -70 -46 -66 -20 3 -22 9 -25 85 -3 93 -1 90 -92 95 -41 3 -45 6 -48 31 -3 26 -2 27 42 27 46 0 69 16 45 31 -8 5 -29 9 -47 9 -26 0 -33 4 -30 18 2 12 16 18 48 22 56 6 59 24 4 28 -35 3 -41 6 -37 22 4 13 16 20 42 22 45 4 48 22 4 26 -33 3 -45 25 -20 35 6 3 69 6 140 6 l127 1 0 -118z"/>
 <path d="M434 459 c-10 -17 13 -36 27 -22 12 12 4 33 -11 33 -5 0 -12 -5 -16 -11z"/>
 </g>

</svg>