<!DOCTYPE svg PUBLIC "-//W3C//DTD SVG 20010904//EN" "http://www.w3.org/TR/2001/REC-SVG-20010904/DTD/svg10.dtd">
<svg version="1.0" xmlns="http://www.w3.org/2000/svg" width="185px" height="172px" viewBox="0 0 1850 1720" preserveAspectRatio="xMidYMid meet">
<g id="layer101" fill="#c3bfba" stroke="none">
 <path d="M720 1713 c-259 -15 -523 -58 -628 -103 -182 -78 -81 -173 241 -225 l107 -18 1 -106 c0 -58 2 -124 4 -146 2 -22 9 -258 15 -525 6 -267 13 -509 16 -537 l5 -53 430 0 429 0 0 138 c0 75 5 301 10 502 5 201 10 433 11 515 3 211 3 215 45 215 47 0 237 38 311 62 35 11 80 36 100 54 37 32 38 33 23 61 -9 15 -33 38 -55 50 -145 81 -672 139 -1065 116z m-190 -363 c0 -5 -9 -10 -20 -10 -11 0 -20 5 -20 10 0 6 9 10 20 10 11 0 20 -4 20 -10z m700 -2 c0 -5 -146 -8 -325 -8 -179 0 -325 3 -325 8 0 4 146 7 325 7 179 0 325 -3 325 -7z m90 2 c0 -5 -9 -10 -20 -10 -11 0 -20 5 -20 10 0 6 9 10 20 10 11 0 20 -4 20 -10z"/>
 </g>
<g id="layer102" fill="#f0f0ef" stroke="none">
 <path d="M720 1713 c-259 -15 -523 -58 -628 -103 -182 -78 -81 -173 241 -225 59 -10 110 -15 113 -12 3 3 3 40 -1 81 -6 64 -10 76 -26 76 -10 0 -30 5 -45 10 -34 13 -20 31 25 35 17 1 34 5 38 9 3 3 17 6 29 6 15 0 24 -7 27 -22 4 -22 4 -22 6 -1 1 18 9 22 64 29 67 8 611 8 717 0 36 -2 70 -5 77 -5 9 -1 11 -33 7 -123 -2 -68 -1 -117 2 -110 3 6 21 12 39 12 48 0 238 38 312 62 35 11 80 36 100 54 37 32 38 33 23 61 -9 15 -33 38 -55 50 -145 81 -672 139 -1065 116z m736 -143 c35 -14 20 -30 -35 -37 -39 -5 -41 -4 -41 21 0 21 5 26 24 26 14 0 37 -5 52 -10z"/>
 <path d="M486 1513 c-3 -8 -3 -46 0 -84 6 -58 10 -69 25 -69 17 0 19 9 19 79 0 69 -2 79 -19 84 -12 3 -22 -1 -25 -10z"/>
 <path d="M582 1435 l3 -80 320 0 320 0 3 80 3 80 -155 -8 c-85 -5 -232 -5 -326 0 l-171 8 3 -80z"/>
 <path d="M1280 1440 c0 -73 2 -80 20 -80 18 0 20 7 20 80 0 73 -2 80 -20 80 -18 0 -20 -7 -20 -80z"/>
 <path d="M835 1331 c24 -5 26 -8 13 -13 -25 -10 -22 -28 5 -29 59 -4 -103 -17 -220 -18 l-133 -1 6 -137 c3 -76 11 -344 19 -596 7 -252 15 -460 17 -463 3 -2 88 -7 189 -11 123 -5 167 -10 134 -14 -27 -3 -45 -7 -38 -7 6 -1 9 -11 6 -22 -5 -19 0 -20 95 -20 98 0 100 0 104 25 5 24 3 25 -45 25 -101 0 -38 9 113 15 85 4 156 8 156 9 3 2 34 1072 34 1139 l0 57 -187 1 c-104 1 -177 3 -163 6 81 12 90 15 90 28 0 8 -6 15 -12 16 -7 0 -4 4 7 9 13 5 -25 8 -100 8 -66 0 -106 -3 -90 -7z"/>
 </g>

</svg>