<!DOCTYPE svg PUBLIC "-//W3C//DTD SVG 20010904//EN" "http://www.w3.org/TR/2001/REC-SVG-20010904/DTD/svg10.dtd">
<svg version="1.0" xmlns="http://www.w3.org/2000/svg" width="147px" height="188px" viewBox="0 0 1470 1880" preserveAspectRatio="xMidYMid meet">
<g id="layer101" fill="#c7c2be" stroke="none">
 <path d="M87 1866 c-54 -15 -94 -47 -82 -66 12 -20 86 -48 148 -55 l57 -7 0 -869 0 -869 40 0 c36 0 40 3 40 25 l0 25 590 0 590 0 0 35 0 35 -415 0 -415 0 0 40 0 40 415 0 415 0 0 540 0 540 -535 0 -535 0 0 -540 0 -540 105 0 105 0 0 -40 0 -40 -160 0 -160 0 0 816 c0 548 3 813 10 809 13 -8 117 13 153 32 40 20 33 53 -18 78 -52 25 -273 32 -348 11z"/>
 </g>
<g id="layer102" fill="#efeeee" stroke="none">
 <path d="M87 1866 c-53 -14 -94 -47 -83 -65 13 -21 68 -42 142 -55 l74 -13 0 31 c0 20 -3 26 -9 18 -6 -10 -12 -7 -25 13 -15 22 -23 26 -47 21 -15 -3 -31 -2 -33 3 -12 19 160 29 246 15 44 -8 41 -24 -5 -24 -40 0 -62 -14 -52 -30 5 -9 4 -11 -3 -6 -8 4 -12 0 -12 -12 0 -22 16 -24 90 -10 117 22 143 64 65 103 -52 25 -273 32 -348 11z"/>
 <path d="M234 1795 c14 -22 16 -115 19 -907 l2 -883 2 908 2 907 -20 0 c-20 0 -21 -1 -5 -25z"/>
 <path d="M215 865 c0 -473 1 -665 2 -427 2 239 2 626 0 860 -1 235 -2 40 -2 -433z"/>
 <path d="M854 1263 c2 -26 21 -32 121 -32 97 -1 119 6 109 32 -5 15 -23 17 -119 17 -101 0 -113 -2 -111 -17z"/>
 <path d="M465 1208 c-3 -7 -4 -222 -3 -478 l3 -465 470 0 470 0 0 475 0 475 -468 3 c-369 2 -469 0 -472 -10z"/>
 <path d="M857 231 c-3 -11 -2 -22 1 -25 3 -3 54 -6 114 -6 l108 0 0 25 0 25 -109 0 c-99 0 -109 -2 -114 -19z"/>
 <path d="M786 108 c-19 -62 -27 -58 121 -58 l134 0 -3 33 -3 32 -123 3 c-93 2 -123 0 -126 -10z"/>
 </g>

</svg>