<svg xmlns="http://www.w3.org/2000/svg" viewBox="0 0 18.42 25"><defs><style>.cls-1{fill:#fbfbfb;}</style></defs><title>layer106</title><g id="Слой_2" data-name="Слой 2"><g id="Слой_1-2" data-name="Слой 1"><g id="layer106"><path class="cls-1" d="M5.88,22.5c-.3-1.4-1.1-2.5-1.7-2.5s-.7-.3-.4-.7-.5-2.2-1.9-4.1c-2.3-2.9-2.4-3.3-.8-3a3,3,0,0,1,2.2,2.6c.2,1.2.8,2.2,1.3,2.2s.9-3.8.9-8.5c0-5,.4-8.5,1-8.5s1,2.7,1,6.1c0,3.7.4,5.8,1,5.4s1-1.7,1-3.1S10,6,10.48,6s.8,1,.4,2.4-.1,2.7.6,3.1,1.4-.2,1.8-1.6l.6-2.4.5,2.3c.6,2.3,2.7,2.7,2.5.5-.1-.7.2-1,.7-.7,1.2.7,1.1,7.1-.2,11.7-1,3.6-1.1,3.7-5.9,3.7C7,25,6.48,24.7,5.88,22.5Z"/></g></g></g></svg>