<!DOCTYPE svg PUBLIC "-//W3C//DTD SVG 20010904//EN" "http://www.w3.org/TR/2001/REC-SVG-20010904/DTD/svg10.dtd">
<svg version="1.0" xmlns="http://www.w3.org/2000/svg" width="165px" height="179px" viewBox="0 0 1650 1790" preserveAspectRatio="xMidYMid meet">
<g id="layer101" fill="#c6bfbb" stroke="none">
 <path d="M515 1774 c-90 -16 -168 -51 -173 -76 -7 -37 83 -70 246 -90 l92 -11 0 -278 0 -279 -36 -15 c-30 -12 -89 -15 -316 -15 l-279 0 -24 -25 -25 -24 0 -425 0 -424 31 -26 c27 -23 40 -26 107 -26 57 -1 73 -3 60 -11 -10 -5 -18 -19 -18 -29 0 -17 7 -20 45 -20 38 0 45 3 45 20 0 10 -8 24 -17 29 -13 8 13 10 92 10 79 0 105 -2 93 -10 -10 -5 -18 -19 -18 -29 0 -17 7 -20 45 -20 38 0 45 3 45 20 0 10 -8 24 -17 29 -13 8 13 10 92 10 79 0 105 -2 93 -10 -10 -5 -18 -19 -18 -29 0 -17 7 -20 45 -20 38 0 45 3 45 20 0 10 -8 24 -17 29 -13 8 13 10 92 10 79 0 105 -2 93 -10 -10 -5 -18 -19 -18 -29 0 -17 7 -20 45 -20 38 0 45 3 45 20 0 10 -8 24 -17 29 -13 8 13 10 92 10 79 0 105 -2 93 -10 -10 -5 -18 -19 -18 -29 0 -17 7 -20 45 -20 38 0 45 3 45 20 0 10 -8 24 -17 29 -13 8 13 10 92 10 79 0 105 -2 93 -10 -10 -5 -18 -19 -18 -29 0 -17 7 -20 45 -20 38 0 45 3 45 20 0 10 -8 24 -17 29 -14 8 2 10 59 11 67 0 80 3 107 26 l31 26 0 424 0 425 -25 24 -24 25 -279 0 c-227 0 -286 3 -316 15 l-36 15 0 279 0 278 73 7 c166 17 272 52 272 92 0 28 -74 61 -179 79 -117 20 -506 19 -621 -1z"/>
 </g>
<g id="layer102" fill="#efeeee" stroke="none">
 <path d="M515 1774 c-91 -16 -168 -51 -173 -76 -7 -38 75 -67 260 -92 l88 -12 0 28 c0 25 -3 28 -33 28 -23 0 -40 8 -55 25 -13 14 -33 25 -47 25 -48 0 -25 19 33 26 75 11 401 11 475 1 60 -9 79 -27 27 -27 -20 0 -33 -6 -37 -17 -10 -27 -25 -33 -60 -27 -32 6 -33 5 -33 -26 l0 -33 77 7 c168 15 278 52 278 92 0 28 -74 61 -179 79 -117 20 -506 19 -621 -1z"/>
 <path d="M813 1703 c33 -5 36 -30 5 -36 -13 -2 14 -5 60 -6 70 -1 84 2 89 17 4 9 11 20 17 24 6 4 -36 7 -94 6 -58 0 -93 -3 -77 -5z"/>
 <path d="M845 1330 l0 -310 50 0 50 0 0 310 0 310 -50 0 -50 0 0 -310z"/>
 <path d="M684 1320 c0 -146 2 -205 3 -132 2 72 2 192 0 265 -1 72 -3 13 -3 -133z"/>
 <path d="M653 1031 c-43 -19 -42 -31 2 -31 28 0 35 -4 35 -20 0 -28 23 -31 205 -28 l160 3 3 25 c2 22 -3 28 -35 39 -21 8 -44 16 -50 18 -8 3 -13 -3 -13 -16 0 -20 -4 -21 -134 -21 -132 0 -135 0 -138 23 -3 21 -4 21 -35 8z"/>
 <path d="M1645 535 c0 -237 1 -332 2 -212 2 120 2 314 0 430 -1 117 -2 19 -2 -218z"/>
 <path d="M65 928 c-3 -7 -4 -189 -3 -403 l3 -390 760 0 760 0 0 400 0 400 -758 3 c-601 2 -759 0 -762 -10z"/>
 <path d="M708 113 c-24 -6 -23 -30 1 -42 11 -6 93 -10 198 -10 98 1 172 4 166 6 -7 3 -13 13 -13 23 0 10 -7 21 -16 24 -18 7 -310 6 -336 -1z"/>
 </g>

</svg>