<!DOCTYPE svg PUBLIC "-//W3C//DTD SVG 20010904//EN" "http://www.w3.org/TR/2001/REC-SVG-20010904/DTD/svg10.dtd">
<svg version="1.0" xmlns="http://www.w3.org/2000/svg" width="14px" height="14px" viewBox="0 0 140 140" preserveAspectRatio="xMidYMid meet">
<g id="layer101" fill="#999999" stroke="none">
 <path d="M16 118 c-20 -29 -20 -67 0 -96 11 -16 25 -22 53 -22 47 0 71 24 71 72 0 37 -23 68 -35 48 -3 -5 -12 -10 -18 -9 -9 0 -9 2 1 6 24 10 11 23 -22 23 -25 0 -39 -7 -50 -22z m16 -36 c-4 -30 9 -46 43 -55 19 -4 18 -5 -2 -6 -28 -1 -53 24 -53 53 0 19 7 36 15 36 1 0 0 -13 -3 -28z m56 -9 c-5 -26 -38 -29 -38 -4 0 15 6 21 21 21 14 0 19 -5 17 -17z"/>
 </g>

</svg>