<!DOCTYPE svg PUBLIC "-//W3C//DTD SVG 20010904//EN" "http://www.w3.org/TR/2001/REC-SVG-20010904/DTD/svg10.dtd">
<svg version="1.0" xmlns="http://www.w3.org/2000/svg" width="55px" height="60px" viewBox="0 0 550 600" preserveAspectRatio="xMidYMid meet">
<g id="layer101" fill="#670e7a" stroke="none">
 <path d="M39 577 c-47 -31 -51 -57 -8 -57 22 0 43 -10 70 -35 22 -19 48 -35 59 -35 11 0 20 -5 20 -12 0 -6 73 -107 161 -225 130 -171 167 -213 185 -213 19 0 24 5 24 24 0 28 -280 460 -304 469 -9 4 -16 15 -16 26 0 11 -12 33 -26 50 -23 27 -32 31 -78 31 -39 0 -62 -6 -87 -23z m135 -19 c14 -13 27 -34 28 -48 3 -21 -2 -26 -26 -28 -21 -3 -37 4 -60 26 -17 16 -40 34 -51 40 -18 9 -16 11 15 20 53 15 67 14 94 -10z m210 -307 c76 -116 137 -214 134 -216 -4 -4 -281 357 -301 392 -11 19 -1 46 15 41 7 -3 75 -100 152 -217z"/>
 </g>

</svg>