<!DOCTYPE svg PUBLIC "-//W3C//DTD SVG 20010904//EN" "http://www.w3.org/TR/2001/REC-SVG-20010904/DTD/svg10.dtd">
<svg version="1.0" xmlns="http://www.w3.org/2000/svg" width="61px" height="42px" viewBox="0 0 610 420" preserveAspectRatio="xMidYMid meet">
<g id="layer101" fill="#670e7a" stroke="none">
 <path d="M63 396 c-11 -13 -28 -25 -39 -28 -26 -5 -24 -32 4 -36 30 -5 28 -22 -3 -22 l-25 0 0 -155 0 -155 205 0 205 0 0 30 c0 29 2 30 43 30 40 0 43 2 70 51 19 34 37 54 58 61 l30 10 -3 91 c-3 82 -5 92 -22 95 -11 3 -28 15 -39 28 -26 34 -88 34 -115 -1 -19 -24 -24 -25 -136 -25 -65 0 -116 4 -116 9 0 20 -33 41 -65 41 -23 0 -39 -7 -52 -24z m87 -26 c14 -26 -3 -60 -30 -60 -19 0 -50 25 -50 40 0 15 31 40 50 40 11 0 24 -9 30 -20z m370 5 c26 -32 -13 -81 -47 -59 -23 14 -28 41 -13 59 16 19 44 19 60 0z m-95 -55 c4 -6 -38 -10 -119 -10 -77 0 -126 4 -126 10 0 6 46 10 119 10 69 0 122 -4 126 -10z m-45 -170 l0 -120 -175 0 -175 0 0 120 0 120 175 0 175 0 0 -120z m200 89 c0 -24 -6 -32 -28 -40 -19 -6 -36 -25 -50 -54 -20 -41 -25 -45 -57 -45 l-35 0 0 85 0 85 85 0 85 0 0 -31z"/>
 </g>

</svg>