<!DOCTYPE svg PUBLIC "-//W3C//DTD SVG 20010904//EN" "http://www.w3.org/TR/2001/REC-SVG-20010904/DTD/svg10.dtd">
<svg version="1.0" xmlns="http://www.w3.org/2000/svg" width="61px" height="61px" viewBox="0 0 610 610" preserveAspectRatio="xMidYMid meet">
<g id="layer101" fill="#ffffff" stroke="none">
 <path d="M250 580 c0 -25 -6 -33 -35 -47 -32 -15 -36 -15 -53 0 -27 24 -44 21 -77 -13 l-29 -31 18 -33 c15 -28 16 -38 5 -57 -15 -30 -28 -39 -56 -39 -21 0 -23 -5 -23 -55 0 -55 0 -55 30 -55 25 0 33 -6 47 -35 15 -32 15 -36 0 -53 -24 -26 -21 -44 11 -75 32 -31 48 -33 73 -11 15 14 23 14 53 3 31 -11 36 -17 36 -46 l0 -33 55 0 c50 0 55 2 55 23 0 28 9 41 39 56 19 11 29 10 57 -5 l34 -19 35 36 36 35 -22 28 c-21 27 -21 29 -6 62 14 28 22 34 47 34 30 0 30 0 30 55 0 52 -2 55 -24 55 -45 0 -80 57 -53 88 27 32 26 39 -12 76 l-37 37 -27 -21 c-41 -32 -97 -6 -97 46 0 22 -3 24 -55 24 -55 0 -55 0 -55 -30z m88 -25 c2 -25 11 -34 50 -52 l47 -22 23 22 22 21 22 -22 22 -22 -21 -22 -22 -23 22 -48 c13 -28 29 -47 39 -47 31 0 48 -12 48 -36 0 -18 -7 -24 -33 -29 -27 -5 -36 -15 -54 -53 l-22 -47 22 -23 21 -22 -22 -22 -22 -22 -23 22 c-22 21 -26 22 -53 8 -16 -8 -37 -17 -46 -20 -12 -4 -18 -15 -18 -36 0 -27 -3 -30 -30 -30 -26 0 -31 5 -37 31 -4 21 -14 33 -32 40 -14 5 -34 14 -45 20 -14 8 -23 6 -42 -12 l-24 -23 -22 22 -22 22 22 23 c21 22 22 26 8 53 -8 16 -17 36 -20 45 -2 9 -20 19 -38 23 -28 5 -34 11 -34 29 1 26 13 37 41 37 14 0 27 14 42 47 l22 48 -22 23 -21 22 22 22 22 22 22 -21 23 -22 47 22 c39 18 48 27 53 55 5 29 10 33 33 30 22 -2 28 -9 30 -33z"/>
 <path d="M253 459 c-42 -12 -100 -81 -108 -129 -13 -76 53 -168 132 -185 76 -16 172 50 187 128 15 78 -39 165 -115 187 -40 12 -53 11 -96 -1z m113 -39 c83 -41 98 -145 30 -207 -45 -42 -94 -51 -142 -27 -106 53 -107 184 -3 236 44 23 63 23 115 -2z"/>
 </g>

</svg>