<!DOCTYPE svg PUBLIC "-//W3C//DTD SVG 20010904//EN" "http://www.w3.org/TR/2001/REC-SVG-20010904/DTD/svg10.dtd">
<svg version="1.0" xmlns="http://www.w3.org/2000/svg" width="39px" height="59px" viewBox="0 0 390 590" preserveAspectRatio="xMidYMid meet">
<g id="layer101" fill="#670e7a" stroke="none">
 <path d="M17 572 c-14 -16 -17 -43 -17 -164 0 -171 5 -181 84 -176 56 4 62 22 9 26 -21 2 -43 8 -50 14 -18 14 -18 259 -1 276 17 17 289 17 306 0 17 -17 17 -259 0 -276 -7 -7 -29 -12 -50 -12 -27 0 -38 -4 -38 -15 0 -11 12 -15 48 -15 78 0 82 10 82 182 0 128 -2 147 -18 161 -16 14 -44 17 -179 17 -142 0 -162 -2 -176 -18z"/>
 <path d="M180 223 l0 -167 -39 38 c-28 27 -45 37 -57 32 -15 -6 -8 -17 41 -66 33 -33 64 -60 70 -60 12 0 125 111 125 123 0 19 -38 3 -72 -30 l-38 -37 0 167 c0 142 -2 167 -15 167 -13 0 -15 -25 -15 -167z"/>
 </g>

</svg>