<!DOCTYPE svg PUBLIC "-//W3C//DTD SVG 20010904//EN" "http://www.w3.org/TR/2001/REC-SVG-20010904/DTD/svg10.dtd">
<svg version="1.0" xmlns="http://www.w3.org/2000/svg" width="60px" height="60px" viewBox="0 0 600 600" preserveAspectRatio="xMidYMid meet">
<g id="layer101" fill="#670e7a" stroke="none">
 <path d="M63 584 c-3 -9 6 -27 23 -45 21 -22 25 -32 16 -41 -9 -9 -19 -5 -41 16 -41 39 -61 30 -61 -28 0 -36 6 -50 29 -74 31 -30 79 -46 107 -35 10 4 31 -9 60 -38 l44 -43 -46 -47 c-48 -48 -84 -56 -84 -18 0 10 -11 26 -25 35 -25 16 -27 16 -55 -11 -17 -16 -30 -36 -30 -45 0 -19 30 -50 48 -50 7 0 12 -6 12 -14 0 -17 97 -109 138 -130 41 -21 122 -22 122 -1 0 9 -10 19 -23 24 -44 17 -84 59 -85 88 0 28 60 103 83 103 21 0 88 -78 82 -94 -11 -28 5 -76 35 -107 24 -23 38 -29 74 -29 58 0 67 20 28 61 -21 22 -25 32 -16 41 9 9 19 5 41 -16 40 -39 61 -29 61 27 0 29 -7 53 -20 70 -24 30 -78 50 -112 42 -18 -5 -31 3 -61 33 l-38 38 116 108 c123 116 134 135 92 174 -31 30 -61 28 -87 -5 -12 -16 -60 -68 -107 -116 l-86 -88 -39 38 c-30 30 -38 43 -33 61 8 34 -12 88 -42 112 -32 25 -111 28 -120 4z m88 -19 c35 -19 52 -55 44 -99 -5 -27 0 -37 39 -75 36 -35 43 -48 34 -58 -9 -11 -20 -5 -59 33 -41 40 -51 46 -75 40 -53 -14 -114 35 -114 90 0 15 5 13 28 -9 35 -34 55 -34 82 0 l21 26 -33 34 c-25 26 -28 33 -14 33 9 0 30 -7 47 -15z m413 -14 c16 -18 10 -24 -125 -152 -77 -74 -146 -136 -152 -138 -7 -2 -33 -24 -59 -49 -66 -64 -72 -45 -9 25 185 203 307 332 317 333 6 0 18 -8 28 -19z m-97 -356 c58 11 113 -34 113 -93 0 -12 -7 -9 -28 11 -33 31 -48 33 -74 10 -25 -22 -23 -42 9 -75 29 -30 23 -34 -26 -17 -40 14 -65 59 -56 101 6 26 2 36 -36 74 -35 35 -40 46 -30 58 10 12 18 8 54 -31 37 -40 44 -44 74 -38z m-387 24 c0 -13 11 -25 33 -34 40 -17 70 -49 72 -77 1 -12 17 -35 35 -51 29 -26 30 -28 9 -22 -45 14 -119 79 -143 126 -6 12 -20 27 -31 33 -11 6 -22 12 -24 13 -2 2 4 12 14 23 20 22 35 18 35 -11z"/>
 </g>

</svg>