<!DOCTYPE svg PUBLIC "-//W3C//DTD SVG 20010904//EN" "http://www.w3.org/TR/2001/REC-SVG-20010904/DTD/svg10.dtd">
<svg version="1.0" xmlns="http://www.w3.org/2000/svg" width="46px" height="60px" viewBox="0 0 460 600" preserveAspectRatio="xMidYMid meet">
<g id="layer101" fill="#670e7a" stroke="none">
 <path d="M59 584 c-10 -12 -17 -83 -26 -248 -7 -141 -16 -232 -23 -234 -5 -2 -10 -10 -10 -18 0 -10 15 -14 60 -14 56 0 60 -2 60 -23 0 -39 18 -47 110 -47 92 0 110 8 110 47 0 21 4 23 60 23 45 0 60 4 60 14 0 8 -4 16 -10 18 -6 2 -15 101 -21 233 -9 178 -15 234 -27 248 -13 15 -35 17 -172 17 -134 0 -160 -2 -171 -16z m324 -81 c4 -38 9 -133 12 -213 4 -80 8 -155 11 -168 l4 -22 -177 0 -178 0 12 223 c7 122 15 228 18 235 3 9 42 12 148 12 l144 0 6 -67z m-75 -450 c-3 -15 -15 -18 -78 -18 -63 0 -75 3 -78 18 -3 15 6 17 78 17 72 0 81 -2 78 -17z"/>
 <path d="M136 458 c-3 -40 -9 -128 -12 -195 -6 -106 -5 -123 8 -123 19 0 25 43 34 243 6 128 5 147 -8 147 -12 0 -17 -17 -22 -72z"/>
 <path d="M210 335 c0 -188 1 -195 20 -195 19 0 20 7 20 195 0 188 -1 195 -20 195 -19 0 -20 -7 -20 -195z"/>
 <path d="M294 388 c10 -204 16 -248 34 -248 13 0 14 18 8 133 -11 211 -17 257 -34 257 -13 0 -14 -19 -8 -142z"/>
 </g>

</svg>